<svg xmlns="http://www.w3.org/2000/svg" width="512" height="512" fill="none" viewBox="0 0 512 512"><path fill="#646464" d="M184.928 88.014a23.76 23.76 0 0 0-17.175 6.51 23.955 23.955 0 0 0-1.007 33.894l.028.028 36.504 38.668a8.7 8.7 0 0 1 1.861 2.907 8.732 8.732 0 0 1-2.211 9.567 8.74 8.74 0 0 1-12.448-.378l-17.622-18.648a24.14 24.14 0 0 0-33.958-1.022 23.939 23.939 0 0 0-7.56 16.736 23.95 23.95 0 0 0 6.511 17.172v.028l26.294 27.831a8.774 8.774 0 0 1-.364 12.474 8.71 8.71 0 0 1-9.658 1.647 8.7 8.7 0 0 1-2.79-2.025h-.042l-9.58-10.206-.196-.28a24.19 24.19 0 0 0-16.763-7.473 24.18 24.18 0 0 0-17.181 6.451 23.94 23.94 0 0 0-7.56 16.746 23.96 23.96 0 0 0 6.525 17.176l31.511 34.216.084.112 4.923 5.082q.056-.84.181-1.638a24.52 24.52 0 0 0 6.826 20.58l1.972 2.002 18.042 17.92c9.51 9.52 25.105 9.52 34.601 0l7.315-7.308 22.21-22.148 15.412-15.26 24.756-24.724 35.412-35.28v-.042a24.44 24.44 0 0 0 7.115-17.241 24.44 24.44 0 0 0-7.115-17.24l-6.195-6.188a18.09 18.09 0 0 1 22.042 2.828l14.783 14.755c12.643 12.67 12.657 32.942.028 45.472v.028l-48.895 48.72h-.028c-7.833 7.84-7.833 20.678.056 28.42l7.049 6.972-9.455 9.436a7.146 7.146 0 0 0-.434 9.659l2.098 2.59h.112l34.797-34.859-2.573-2.1a7.27 7.27 0 0 0-4.993-1.624 7.4 7.4 0 0 0-4.671 2.1l-9.063 9.058-7.133-7.056h-.028a11.76 11.76 0 0 1-3.506-8.419 11.77 11.77 0 0 1 3.562-8.395l48.867-48.72a40.34 40.34 0 0 0 11.826-28.519 40.341 40.341 0 0 0-11.798-28.531l-14.825-14.783a26.3 26.3 0 0 0-18.602-7.7 26.35 26.35 0 0 0-15.147 4.802l-7.888-7.882a24.32 24.32 0 0 0-17.3-7.112v-.028q-1.44.024-2.868.196l-13.104-14.42-.112-.07-17.903-19.012-36.741-38.92a24.18 24.18 0 0 0-16.783-7.504zm-.252 8.89a15.1 15.1 0 0 1 10.574 4.816l36.783 38.892 17.874 18.942 10.406 11.48a23.7 23.7 0 0 0-5.133 3.892l-54.686 54.529-50.433 50.218a25.2 25.2 0 0 0-4.308 5.964l.14-.294-1.315-1.372-31.51-34.202-.056-.028a14.884 14.884 0 0 1-2.868-16.527 14.9 14.9 0 0 1 3.455-4.781l.056-.028a15.09 15.09 0 0 1 16.545-2.835 15.1 15.1 0 0 1 4.812 3.409l.028.168 9.804 10.36a17.75 17.75 0 0 0 25.035.798 17.793 17.793 0 0 0 .783-25.06h-.028L144.34 187.4v-.028a14.85 14.85 0 0 1-2.881-16.531 14.8 14.8 0 0 1 3.469-4.777 15.09 15.09 0 0 1 16.624-2.823 15.1 15.1 0 0 1 4.816 3.453l17.567 18.62a17.754 17.754 0 0 0 25.049.798 17.79 17.79 0 0 0 .769-25.06h-.028l-36.503-38.682a14.83 14.83 0 0 1-4.2-10.764 14.833 14.833 0 0 1 4.787-10.516 15.095 15.095 0 0 1 10.867-4.186m87.791 79.744c2 0 3.986.42 5.846 1.176a15.4 15.4 0 0 0-5.846-1.176m6.153 1.344q2.658 1.12 4.84 3.248a15.4 15.4 0 0 0-4.84-3.248M145.473 286.239a25.3 25.3 0 0 0-2.154 6.622 23.9 23.9 0 0 1 2.154-6.622m187.371 42.518-35.762 35.797 39.832 48.09a40 40 0 0 0 1.958 2.1c12.238 12.222 32.406 12.46 44.84 0a31.516 31.516 0 0 0 5.979-36.406 31.5 31.5 0 0 0-8.105-10.214z"/></svg>